<svg xmlns="http://www.w3.org/2000/svg" viewBox="0 0 512 512" role="img" aria-label="Vijay &amp; Samyuktha monogram">
  <rect width="512" height="512" rx="96" fill="#fbf8f3" />
  <svg x="97" y="97" width="317" height="317" viewBox="0 0 1248 1232" preserveAspectRatio="xMidYMid meet">
    <g transform="translate(0.000000,1232.000000) scale(0.100000,-0.100000)"
fill="#9c7a54" stroke="none">
<path d="M7063 10760 c-34 -5 -71 -14 -82 -20 -11 -6 -96 -17 -188 -26 -167
-15 -237 -31 -398 -88 -38 -13 -86 -27 -105 -30 -19 -4 -57 -23 -83 -44 -49
-37 -96 -66 -178 -111 -24 -13 -55 -31 -69 -41 -14 -10 -78 -52 -142 -94 -70
-45 -123 -87 -132 -103 -17 -34 -75 -89 -134 -127 -45 -31 -72 -69 -91 -127
-6 -20 -25 -49 -42 -65 -17 -16 -49 -57 -71 -91 -37 -59 -99 -123 -117 -123
-5 0 -32 -34 -60 -76 -47 -69 -77 -133 -116 -249 -7 -22 -27 -65 -44 -96 -19
-34 -41 -100 -55 -165 -13 -60 -38 -149 -55 -199 -17 -49 -31 -99 -31 -111 0
-11 -8 -61 -19 -110 -48 -230 -50 -386 -10 -798 20 -197 23 -211 50 -250 15
-22 34 -63 40 -91 28 -125 73 -273 95 -316 13 -26 32 -69 42 -95 18 -48 40
-84 102 -172 16 -23 30 -46 30 -50 0 -4 29 -40 64 -80 35 -40 75 -96 89 -125
25 -53 46 -75 252 -259 61 -55 121 -109 135 -122 31 -28 203 -212 249 -267 19
-22 55 -51 80 -64 94 -47 113 -92 107 -248 -8 -174 -44 -304 -115 -409 -16
-24 -33 -57 -37 -73 -4 -17 -24 -55 -44 -86 -47 -70 -80 -133 -80 -155 0 -23
-73 -166 -107 -209 -35 -44 -109 -95 -139 -95 -24 0 -94 72 -122 125 -18 35
-87 131 -100 139 -12 7 -76 209 -103 326 -12 52 -30 107 -40 122 -11 14 -19
30 -19 35 0 5 -13 22 -30 38 -52 50 -123 210 -161 363 -10 40 -26 85 -36 99
-29 41 -29 42 -88 168 -30 66 -64 137 -75 157 -11 20 -20 43 -20 50 0 7 -8 29
-19 48 -10 19 -21 49 -25 67 -4 18 -25 72 -47 120 -21 48 -39 102 -39 119 0
17 -16 56 -35 88 -19 32 -35 61 -35 64 0 10 -92 236 -100 247 -4 6 -22 53 -39
105 -18 52 -45 118 -61 145 -46 78 -100 188 -100 202 0 8 -11 30 -24 51 -38
61 -83 155 -89 189 -3 17 -24 69 -47 115 -22 45 -40 87 -40 93 0 5 -14 28 -30
49 -17 22 -30 44 -30 50 0 6 -7 25 -16 41 -27 50 -84 196 -84 214 0 9 -20 57
-44 106 -24 50 -46 107 -50 129 -9 47 -71 179 -124 262 -53 83 -75 153 -97
314 -12 89 -37 216 -47 242 -16 43 16 159 59 210 18 22 38 49 44 59 5 10 27
24 49 30 22 7 45 18 51 26 6 7 20 13 31 13 10 0 36 9 58 20 22 11 45 20 52 20
8 0 29 13 48 30 19 16 45 29 58 30 13 0 47 11 75 24 29 13 60 26 70 29 29 11
20 42 -18 60 -20 9 -44 17 -54 17 -10 0 -35 7 -56 16 -30 12 -43 13 -65 4 -22
-9 -34 -9 -56 3 -54 28 -250 37 -554 27 -262 -9 -1640 -5 -1825 5 -44 3 -114
-1 -155 -7 -88 -13 -118 -13 -185 1 -141 29 -149 29 -200 12 -49 -16 -50 -17
-53 -58 -3 -36 1 -44 22 -59 15 -9 26 -22 26 -29 0 -20 49 -55 76 -55 15 0 41
-21 81 -65 45 -50 76 -73 139 -104 65 -31 91 -51 132 -100 46 -56 51 -66 57
-128 9 -90 25 -121 86 -168 74 -58 77 -62 89 -108 16 -68 41 -151 51 -170 5
-9 20 -47 34 -84 14 -36 29 -71 34 -77 5 -6 25 -49 46 -96 20 -47 45 -94 55
-105 10 -11 21 -31 25 -45 4 -14 25 -58 47 -99 27 -48 45 -98 53 -145 13 -76
70 -201 155 -341 27 -44 53 -100 59 -125 20 -90 69 -209 104 -252 19 -24 39
-57 42 -73 11 -47 65 -198 75 -210 18 -22 122 -232 142 -285 10 -30 28 -93 39
-140 20 -84 48 -144 72 -153 13 -5 39 -66 75 -172 62 -187 97 -273 120 -300
36 -40 65 -103 92 -195 12 -41 33 -93 47 -114 29 -44 73 -168 73 -203 0 -28
33 -97 67 -137 29 -34 163 -311 163 -335 0 -33 32 -126 50 -146 16 -17 70
-178 70 -208 0 -16 79 -167 107 -204 26 -36 57 -113 109 -271 31 -94 38 -108
83 -148 52 -47 66 -77 94 -194 16 -69 90 -283 126 -363 11 -27 21 -57 21 -68
0 -43 51 -143 99 -194 28 -29 53 -66 56 -81 11 -56 37 -140 55 -179 10 -22 31
-69 46 -105 25 -59 39 -83 91 -160 64 -96 67 -103 119 -320 44 -181 86 -284
130 -321 34 -28 118 -245 134 -349 7 -41 23 -113 37 -160 47 -160 67 -189 120
-175 29 7 103 63 103 78 0 9 91 116 150 176 14 14 43 47 65 73 32 38 56 53
120 78 148 59 315 76 419 45 27 -8 60 -15 74 -15 37 0 226 -72 354 -135 119
-59 179 -83 318 -130 47 -15 108 -38 135 -50 100 -44 242 -88 375 -116 74 -16
488 -46 660 -49 66 0 107 4 133 15 20 8 67 15 104 15 71 1 260 20 378 40 294
48 287 47 327 89 16 17 47 33 75 40 105 26 121 31 208 57 71 21 98 35 129 66
22 21 44 38 48 38 5 0 28 18 51 39 27 25 75 52 132 75 123 50 141 61 213 128
34 32 66 58 70 58 4 0 65 64 136 143 72 78 167 178 212 222 84 83 113 128 134
205 21 78 84 183 153 255 50 51 82 121 111 237 29 114 42 146 76 178 32 31 43
97 67 395 28 346 17 624 -41 963 -24 141 -41 212 -55 235 -44 70 -71 128 -71
154 0 42 -49 191 -77 237 -15 22 -58 77 -96 120 -66 75 -157 236 -157 279 0
20 -51 62 -114 94 -62 31 -106 70 -106 96 0 24 -119 138 -176 167 -24 13 -73
53 -109 89 -92 94 -170 161 -332 281 -26 19 -83 65 -127 103 -44 37 -84 67
-88 67 -5 0 -50 20 -100 45 -62 31 -110 65 -152 105 -33 33 -68 60 -76 60 -22
0 -159 55 -210 84 -25 14 -61 31 -79 37 -34 12 -145 83 -186 119 -11 10 -38
25 -60 35 -130 55 -189 91 -232 139 -52 58 -73 101 -73 147 0 33 3 45 40 159
12 36 31 99 44 140 27 92 64 168 90 186 37 26 119 201 136 290 10 51 23 82 49
116 32 42 76 107 106 156 6 9 29 39 53 66 24 28 52 66 62 85 11 20 45 72 77
116 62 85 116 127 256 200 75 38 114 68 133 101 18 31 170 101 234 107 110 10
189 -34 264 -146 22 -33 57 -70 77 -83 42 -26 89 -112 113 -205 8 -31 23 -74
34 -95 10 -22 27 -70 37 -107 10 -37 22 -70 27 -73 4 -3 8 -15 8 -27 1 -21 22
-62 63 -119 10 -15 26 -75 37 -144 26 -157 44 -211 91 -284 38 -60 39 -60 86
-60 113 1 149 102 132 365 -5 71 -14 144 -21 161 -8 23 -9 76 -2 195 6 96 6
203 1 259 -4 52 -8 329 -7 615 1 506 0 521 -20 557 -22 43 -25 98 -9 179 15
77 12 224 -6 259 -8 16 -15 37 -15 47 0 10 -12 41 -27 70 -23 46 -30 53 -55
53 -18 0 -38 -9 -52 -25 -31 -34 -111 -173 -120 -209 -4 -17 -26 -52 -49 -80
-50 -59 -190 -166 -219 -166 -10 0 -29 -5 -40 -11 -16 -8 -34 -6 -82 9 -33 11
-77 23 -96 26 -19 4 -57 17 -85 30 -102 48 -192 85 -260 107 -92 29 -165 59
-193 81 -13 9 -58 31 -101 47 -43 16 -111 50 -152 74 -146 86 -260 122 -420
131 -54 4 -119 14 -150 26 -83 29 -627 57 -756 40z m652 -481 c63 -7 137 -22
173 -36 34 -12 71 -23 82 -23 11 0 79 -29 152 -63 73 -35 156 -72 185 -81 29
-10 67 -28 85 -41 18 -14 49 -36 70 -49 20 -14 39 -30 43 -36 3 -6 30 -22 58
-37 76 -38 232 -158 255 -196 11 -17 27 -55 36 -84 31 -95 -4 -121 -179 -138
-38 -4 -428 -8 -865 -10 -926 -4 -1055 -12 -1178 -67 -45 -21 -64 -57 -43 -82
28 -34 220 -83 413 -107 102 -12 149 -32 173 -72 10 -17 44 -59 74 -93 140
-153 168 -222 178 -430 l6 -132 -34 -68 c-18 -38 -41 -107 -51 -154 -33 -166
-55 -224 -107 -287 -14 -18 -37 -46 -49 -63 -38 -49 -75 -63 -156 -58 -118 8
-248 76 -345 182 -14 15 -37 38 -50 50 -14 11 -43 39 -65 62 -23 22 -60 55
-84 73 -23 18 -49 46 -58 63 -26 51 -87 106 -147 133 -40 19 -62 36 -74 58
-19 38 -51 182 -63 287 -4 41 -16 119 -25 173 -10 61 -17 159 -18 255 l-1 157
42 122 c49 146 72 184 159 266 75 71 142 162 167 226 20 51 45 74 106 97 76
28 154 65 175 84 31 27 94 57 160 76 33 9 66 22 73 27 30 23 142 32 375 30
133 -1 292 -7 352 -14z m-690 -4878 c123 -29 167 -53 253 -136 86 -86 151
-121 282 -154 45 -11 93 -29 107 -41 14 -11 35 -20 46 -20 11 0 51 -32 96 -79
42 -43 87 -82 101 -85 73 -21 283 -130 330 -172 45 -40 89 -73 118 -88 19 -10
53 -32 77 -51 24 -18 68 -44 98 -58 63 -28 89 -54 118 -115 15 -30 43 -60 95
-99 64 -48 80 -66 126 -150 29 -52 62 -109 73 -127 11 -18 35 -58 53 -89 19
-31 38 -60 43 -63 5 -3 9 -17 9 -32 0 -15 7 -36 15 -46 8 -11 15 -29 15 -41 0
-11 8 -43 19 -72 16 -44 40 -249 32 -278 -2 -5 -9 -73 -17 -150 -14 -138 -17
-155 -50 -265 -28 -94 -44 -164 -44 -193 0 -40 -21 -76 -90 -154 -33 -37 -60
-75 -60 -83 0 -20 -75 -93 -117 -114 -18 -9 -63 -47 -100 -84 -37 -37 -84 -74
-103 -82 -34 -14 -92 -48 -118 -71 -28 -23 -229 -122 -267 -131 -22 -5 -78
-13 -125 -18 -47 -4 -136 -13 -199 -19 -122 -12 -386 -7 -460 10 -24 5 -62 9
-85 8 -42 -2 -156 15 -212 32 -17 5 -38 9 -48 9 -10 0 -30 8 -44 18 -15 11
-61 29 -102 42 -41 14 -86 32 -99 42 -13 10 -29 18 -36 18 -7 0 -83 47 -170
105 -86 58 -160 105 -164 105 -3 0 -22 13 -42 29 -20 17 -48 33 -63 37 -15 3
-61 41 -104 83 -46 45 -100 88 -134 105 -74 37 -95 57 -107 103 -6 20 -24 50
-40 67 -17 17 -41 51 -54 76 -47 90 -55 106 -71 140 -41 90 -42 120 -11 246
20 81 37 126 56 150 18 22 33 61 44 112 9 42 25 97 36 121 10 24 19 50 19 59
0 28 102 200 125 210 16 8 31 36 57 109 19 54 40 120 46 146 12 49 48 129 101
226 17 29 34 65 39 80 5 14 30 60 56 101 25 41 46 78 46 83 0 5 16 35 35 66
19 32 41 83 49 113 8 31 21 69 30 86 8 16 18 49 22 72 4 23 17 54 29 69 13 14
39 56 59 92 39 71 137 186 170 199 35 15 127 10 211 -9z"/>
</g>
  </svg>
</svg>
