<svg xmlns="http://www.w3.org/2000/svg" viewBox="0 0 3072 2048" role="img" aria-label="Vijay &amp; Samyuktha monogram">
  <g transform="translate(0.000000,2048.000000) scale(0.100000,-0.100000)"
fill="#9c7a54" stroke="none">
<path d="M24290 20183 c-51 -27 -73 -68 -104 -194 -159 -643 -424 -1007 -808
-1109 -86 -22 -302 -28 -380 -10 -323 74 -501 141 -863 323 -962 482 -1557
706 -2220 837 -33 6 -78 15 -100 20 -22 5 -71 13 -110 19 -38 6 -86 13 -105
16 -503 78 -1310 76 -1855 -5 -587 -86 -1224 -288 -1765 -560 -1165 -583
-2120 -1549 -2610 -2640 -28 -63 -60 -135 -72 -160 -47 -104 -171 -465 -211
-620 -48 -181 -101 -452 -128 -655 -49 -370 -41 -1074 16 -1360 3 -16 10 -57
16 -90 63 -377 155 -686 327 -1100 153 -367 557 -1018 789 -1270 10 -11 43
-49 73 -85 30 -36 62 -72 70 -80 8 -8 40 -44 70 -80 58 -68 322 -335 406 -409
27 -24 90 -82 139 -127 337 -309 1063 -842 1502 -1103 103 -61 105 -32 -32
-331 -29 -63 -101 -221 -160 -350 -59 -129 -131 -287 -160 -350 -29 -63 -77
-167 -105 -230 -56 -122 -146 -318 -237 -515 -31 -66 -84 -181 -118 -255 -67
-144 -142 -309 -220 -480 -26 -58 -70 -154 -97 -215 -28 -60 -73 -159 -100
-220 -27 -60 -59 -130 -70 -155 -12 -25 -43 -94 -69 -154 -86 -193 -85 -193
-184 39 -25 58 -70 160 -101 227 -68 148 -127 280 -184 408 -23 52 -66 147
-95 210 -49 106 -80 176 -185 410 -21 47 -65 144 -98 215 -33 72 -79 173 -102
225 -130 292 -201 450 -265 590 -29 63 -71 156 -93 205 -22 50 -63 140 -90
200 -27 61 -71 157 -97 215 -60 133 -132 293 -200 440 -29 63 -74 162 -100
220 -62 139 -137 303 -190 420 -24 52 -62 138 -85 190 -23 52 -66 147 -95 210
-50 109 -69 151 -195 430 -29 63 -77 169 -107 235 -96 209 -140 307 -188 415
-75 169 -124 277 -185 410 -55 119 -78 171 -192 425 -27 61 -70 155 -95 210
-24 55 -57 129 -73 165 -16 36 -55 124 -88 195 -63 139 -112 246 -187 415 -25
58 -64 143 -85 190 -21 47 -59 130 -83 185 -25 55 -67 150 -95 210 -27 61 -66
148 -87 195 -20 47 -61 137 -90 200 -29 63 -70 153 -90 200 -20 47 -55 126
-77 175 -22 50 -56 126 -76 170 -19 44 -56 127 -82 185 -90 199 -163 365 -240
550 -29 69 -61 145 -72 170 -75 171 -198 524 -244 700 -193 740 31 1140 744
1331 105 28 237 53 367 70 213 27 437 45 710 57 180 8 191 11 242 64 81 84 45
202 -74 242 -73 25 -8275 24 -8349 -1 -93 -31 -124 -69 -124 -151 0 -91 69
-142 209 -155 829 -73 1306 -317 1684 -860 162 -232 294 -485 649 -1242 132
-282 216 -460 286 -610 38 -82 99 -213 135 -290 36 -77 95 -205 132 -285 37
-80 96 -208 132 -285 36 -77 94 -203 130 -280 96 -207 266 -571 411 -880 44
-93 108 -231 142 -305 34 -74 94 -202 132 -285 39 -82 97 -208 130 -280 33
-71 93 -200 133 -285 73 -157 153 -327 285 -610 141 -302 214 -457 295 -630
79 -166 148 -315 272 -585 30 -66 88 -190 128 -275 40 -85 98 -211 130 -280
31 -69 90 -195 130 -280 118 -252 209 -446 280 -600 189 -410 296 -640 395
-850 103 -220 187 -400 250 -540 29 -63 90 -194 135 -290 45 -96 104 -222 130
-280 26 -58 80 -175 120 -260 75 -159 153 -330 233 -505 24 -55 75 -165 112
-245 91 -196 177 -381 240 -520 29 -63 79 -171 110 -240 55 -119 96 -209 211
-462 49 -108 95 -209 214 -468 29 -63 72 -158 95 -210 23 -52 69 -153 102
-225 79 -170 152 -330 223 -485 31 -69 86 -188 122 -265 36 -77 87 -187 113
-245 27 -58 77 -168 113 -245 35 -77 86 -187 112 -245 26 -58 70 -154 97 -215
27 -60 60 -135 73 -165 13 -30 36 -82 51 -115 189 -423 317 -792 366 -1055 5
-30 14 -77 19 -105 11 -60 26 -185 37 -315 9 -108 28 -151 82 -188 106 -71
181 -29 271 152 345 691 598 1011 924 1166 75 36 115 48 265 80 231 50 613
-62 1088 -319 988 -533 1863 -868 2592 -992 30 -5 80 -14 110 -20 496 -95
1286 -122 1815 -60 44 5 118 14 165 20 47 5 112 14 145 20 122 20 262 47 320
60 22 5 56 12 75 16 118 25 538 148 630 185 25 10 88 34 140 54 168 62 539
230 616 279 22 13 67 39 101 56 267 134 834 530 1058 737 11 11 58 53 105 94
752 668 1352 1613 1631 2570 56 192 82 298 125 515 98 492 121 1117 65 1705
-45 458 -187 1004 -379 1455 -74 173 -124 281 -156 333 -18 32 -50 89 -69 128
-229 458 -739 1102 -1207 1524 -52 47 -108 98 -125 114 -109 103 -547 448
-735 579 -352 244 -745 492 -1010 637 -47 26 -119 66 -160 90 -130 75 -349
193 -745 403 -93 49 -379 196 -635 327 -1003 512 -960 489 -960 515 0 13 36
99 81 192 362 752 900 1843 981 1988 289 514 545 903 725 1100 10 11 50 56 88
100 365 412 869 695 1330 746 260 29 232 39 342 -118 133 -190 161 -233 263
-403 162 -270 196 -331 339 -617 122 -245 171 -351 276 -593 83 -193 246 -651
291 -820 14 -52 32 -120 40 -150 13 -48 31 -129 65 -297 37 -181 222 -223 310
-70 38 67 43 6030 5 6113 -39 85 -127 118 -206 77z m-4950 -902 c41 -5 111
-14 155 -20 44 -6 94 -13 110 -16 17 -4 75 -16 130 -26 392 -78 953 -295 1310
-507 314 -186 576 -374 840 -601 203 -175 605 -595 637 -667 24 -52 191 -49
-2959 -51 -2293 -1 -2956 -4 -2990 -14 -116 -32 -155 -158 -76 -242 52 -54 19
-49 498 -77 1161 -67 1756 -408 1894 -1085 5 -27 15 -75 21 -105 13 -64 7
-449 -8 -545 -15 -90 -31 -175 -41 -220 -5 -22 -14 -62 -20 -90 -47 -226 -209
-684 -376 -1065 -150 -343 -181 -407 -204 -415 -21 -6 -47 5 -141 60 -30 18
-89 52 -130 75 -803 460 -1425 1020 -1762 1588 -133 223 -135 228 -233 467
-67 167 -130 402 -157 590 -15 109 -22 588 -9 670 28 171 35 205 58 295 259
1003 1178 1789 2303 1969 41 7 97 16 123 21 27 6 74 10 105 11 31 0 66 4 77 9
26 12 748 4 845 -9z m-1657 -10332 c73 -40 179 -97 237 -129 58 -31 161 -87
230 -125 69 -37 186 -101 260 -140 74 -40 191 -103 260 -140 69 -37 186 -100
260 -140 260 -140 570 -308 708 -384 50 -28 131 -73 180 -99 48 -26 98 -55
112 -63 14 -9 72 -42 130 -74 58 -32 148 -84 200 -115 52 -31 129 -76 170
-100 456 -269 946 -637 1250 -940 512 -510 871 -1107 1000 -1665 12 -49 23
-101 27 -115 20 -91 27 -199 27 -450 -1 -262 -6 -347 -33 -495 -162 -902 -807
-1758 -1636 -2173 -356 -177 -661 -268 -1085 -323 -219 -28 -729 -28 -950 0
-574 74 -915 166 -1475 399 -641 267 -1456 854 -1905 1372 -36 41 -67 77 -70
80 -91 85 -479 616 -511 697 -15 38 -30 3 456 1023 56 118 135 285 175 370 40
85 115 245 167 355 53 110 134 281 181 380 46 99 131 277 187 395 57 118 151
316 210 440 176 369 330 691 446 931 60 124 109 229 109 231 0 3 44 97 99 209
54 112 138 287 186 389 225 476 222 470 253 470 7 0 73 -32 145 -71z"/>
</g>
</svg>
